<?xml version="1.0" encoding="UTF-8" standalone="no"?>
<svg width="132" height="132" viewBox="0 0 132 132" version="1.1" xml:space="preserve" xmlns="http://www.w3.org/2000/svg" xmlns:svg="http://www.w3.org/2000/svg"><defs><linearGradient><stop style="stop-color:#000000;stop-opacity:1;" offset="0" /></linearGradient></defs><g id="layer1" transform="translate(2,2)"><path style="display:inline;opacity:1;fill:#dedede;fill-opacity:1;stroke:#ffffff;stroke-width:0;stroke-miterlimit:2;stroke-dasharray:none;stroke-opacity:1" d="m 62.332031,14.908203 -5.987113,0.102128 -4.323434,0.849044 -3.330078,1.746094 -3.304066,1.575916 -3.406195,2.679468 -3.45015,3.319912 -1.73412,3.684469 -1.587891,4.441407 -0.632812,6.820312 v 7.613281 7.453125 l 1.74414,8.248047 1.585938,3.648438 2.537109,5.708984 2.697266,5.234375 0.158203,4.441406 -1.585937,4.59961 -2.697266,3.804687 -4.757813,2.855469 -6.027343,3.330078 -8.087891,3.173827 -8.564453,3.48828 -6.5019531,4.44141 L 0,112.13281 V 128 h 128 v -19.03906 l -8.0957,-3.64844 -4.44141,-1.90234 -8.88086,-3.648441 -7.931639,-3.806641 -6.501953,-2.855469 -6.501954,-3.013671 -3.648437,-3.964844 -1.269531,-3.171875 0.792968,-3.330078 2.220704,-4.441407 3.013671,-4.441406 1.585938,-6.818359 1.427734,-6.820313 0.476563,-5.550781 0.158203,-6.662109 -0.951172,-6.66211 -0.792969,-4.916015 -2.855468,-4.28125 -2.220704,-3.173829 -3.648437,-4.757812 -5.232422,-3.806641 -6.978516,-2.060547 z" /><path style="opacity:1;fill:none;stroke:#bbbbbb;stroke-width:4;stroke-miterlimit:2;stroke-dasharray:none;stroke-opacity:1" d="M 0,0 H 128 V 128 H 0 Z" /></g></svg>
